<?xml version="1.0" standalone="no"?>
<!DOCTYPE svg PUBLIC "-//W3C//DTD SVG 20010904//EN"
 "http://www.w3.org/TR/2001/REC-SVG-20010904/DTD/svg10.dtd">
<svg version="1.0" xmlns="http://www.w3.org/2000/svg"
 width="260.000000pt" height="235.000000pt" viewBox="0 0 260.000000 235.000000"
 preserveAspectRatio="xMidYMid meet">

<g transform="translate(0.000000,235.000000) scale(0.100000,-0.100000)"
fill="#000000" stroke="none">
<path d="M624 1889 c-60 -10 -184 -53 -226 -79 l-29 -17 43 -7 c126 -20 181
-121 198 -361 10 -147 19 -186 63 -268 61 -115 206 -206 340 -214 l72 -4 -49
20 c-63 26 -112 73 -142 136 -47 100 -19 165 72 165 65 0 96 -22 200 -145 94
-112 154 -160 211 -171 50 -9 130 1 193 25 52 20 156 88 148 97 -2 2 -33 -1
-68 -7 -196 -31 -409 61 -485 210 -33 67 -33 113 1 140 47 37 94 26 178 -42
85 -70 182 -81 273 -33 25 12 24 13 -28 19 -31 4 -85 22 -126 42 -61 30 -88
53 -175 147 -173 188 -261 272 -315 301 -93 50 -225 67 -349 46z m76 -62 c0
-22 -22 -37 -55 -37 -29 0 -55 15 -55 31 0 7 32 13 88 17 12 1 22 -4 22 -11z"/>
<path d="M1230 1690 c49 -45 134 -99 182 -116 63 -22 159 -34 198 -25 30 8 31
9 9 10 -46 2 -93 23 -159 72 -71 53 -126 75 -210 84 l-55 6 35 -31z"/>
<path d="M1360 1526 c77 -81 220 -136 350 -136 37 0 102 9 146 21 101 27 145
21 192 -23 l35 -33 -7 33 c-8 47 -41 89 -85 111 -65 34 -101 35 -209 7 -171
-44 -322 -30 -427 40 l-40 27 45 -47z"/>
<path d="M1755 1242 c-28 -10 -73 -31 -100 -47 -75 -45 -103 -55 -154 -56
l-46 -1 35 -10 c19 -6 72 -8 116 -6 73 4 93 10 179 51 86 42 104 47 168 48
l72 1 -40 19 c-52 24 -161 25 -230 1z"/>
<path d="M1979 1159 c-68 -10 -105 -33 -199 -124 -47 -45 -98 -90 -115 -98
-36 -19 -22 -20 65 -6 98 15 162 50 247 131 69 68 78 73 118 73 33 0 39 2 27
9 -27 16 -93 22 -143 15z"/>
<path d="M2095 1066 l-30 -13 28 -8 c15 -4 49 -25 75 -46 56 -47 101 -63 148
-55 30 6 49 26 25 26 -6 0 -31 19 -58 41 -77 67 -127 82 -188 55z"/>
<path d="M790 952 c0 -16 100 -110 158 -148 117 -79 214 -99 377 -79 102 13
206 7 239 -12 6 -4 5 1 -3 11 -30 36 -94 58 -204 71 -83 9 -113 17 -128 32
-25 25 -16 48 24 63 l32 12 -31 9 c-23 7 -48 4 -94 -11 -109 -35 -240 -19
-337 42 -18 11 -33 15 -33 10z"/>
<path d="M1480 664 c14 -9 46 -37 73 -61 65 -60 167 -103 121 -50 -11 12 -28
34 -37 48 -23 38 -77 68 -133 75 l-49 6 25 -18z"/>
</g>
</svg>
